<?xml version="1.0" encoding="UTF-8" standalone="no"?>
<!-- Created with Inkscape (http://www.inkscape.org/) -->

<svg
   width="1920"
   height="255.99998"
   viewBox="0 0 507.99998 67.733329"
   version="1.1"
   id="svg1"
   xml:space="preserve"
   inkscape:version="1.4.2 (ebf0e940d0, 2025-05-08)"
   sodipodi:docname="wave-haikei.svg"
   xmlns:inkscape="http://www.inkscape.org/namespaces/inkscape"
   xmlns:sodipodi="http://sodipodi.sourceforge.net/DTD/sodipodi-0.dtd"
   xmlns="http://www.w3.org/2000/svg"
   xmlns:svg="http://www.w3.org/2000/svg"><sodipodi:namedview
     id="namedview1"
     pagecolor="#ffffff"
     bordercolor="#000000"
     borderopacity="0.25"
     inkscape:showpageshadow="2"
     inkscape:pageopacity="0.0"
     inkscape:pagecheckerboard="0"
     inkscape:deskcolor="#d1d1d1"
     inkscape:document-units="mm"
     showgrid="false"
     inkscape:zoom="1"
     inkscape:cx="544"
     inkscape:cy="23"
     inkscape:window-width="1920"
     inkscape:window-height="1008"
     inkscape:window-x="1920"
     inkscape:window-y="0"
     inkscape:window-maximized="1"
     inkscape:current-layer="layer1" /><defs
     id="defs1" /><g
     inkscape:label="Capa 1"
     inkscape:groupmode="layer"
     id="layer1"
     transform="translate(-11.194479,-143.43324)"><path
       style="display:inline;fill:#da873b;fill-opacity:1;stroke-width:5.06354"
       d="m 11.194556,177.29991 c 0,-18.62667 0.109015,-33.86667 0.242003,-33.86667 0.133122,0 6.74104,1.69756 14.684327,3.77231 71.706148,18.72939 100.726164,23.86769 127.707604,22.6119 16.1278,-0.75061 20.98732,-1.6158 67.70978,-12.05502 47.64472,-10.64529 66.95005,-11.01641 112.97704,-2.17186 26.83846,5.15725 31.37422,5.7152 46.03764,5.66302 10.83638,-0.0369 8.87436,0.11118 41.0102,-3.13046 29.04974,-2.93034 48.42468,-0.32985 87.18013,11.70191 l 10.4512,3.24455 v 19.04849 19.04849 H 265.1945 11.194479 Z"
       id="path1" /></g></svg>
