<?xml version="1.0" encoding="UTF-8" standalone="no"?>
<!-- Created with Inkscape (http://www.inkscape.org/) -->

<svg
   width="552"
   height="540"
   viewBox="0 0 146.05 142.875"
   version="1.1"
   id="svg1"
   xml:space="preserve"
   inkscape:version="1.4.2 (ebf0e940d0, 2025-05-08)"
   sodipodi:docname="wave-haikei-def.svg"
   xmlns:inkscape="http://www.inkscape.org/namespaces/inkscape"
   xmlns:sodipodi="http://sodipodi.sourceforge.net/DTD/sodipodi-0.dtd"
   xmlns="http://www.w3.org/2000/svg"
   xmlns:svg="http://www.w3.org/2000/svg"><sodipodi:namedview
     id="namedview1"
     pagecolor="#ffffff"
     bordercolor="#000000"
     borderopacity="0.25"
     inkscape:showpageshadow="2"
     inkscape:pageopacity="0.0"
     inkscape:pagecheckerboard="0"
     inkscape:deskcolor="#d1d1d1"
     inkscape:document-units="px"
     inkscape:zoom="1"
     inkscape:cx="396.5"
     inkscape:cy="339"
     inkscape:window-width="1920"
     inkscape:window-height="1008"
     inkscape:window-x="1920"
     inkscape:window-y="0"
     inkscape:window-maximized="1"
     inkscape:current-layer="layer1" /><defs
     id="defs1" /><g
     inkscape:label="Capa 1"
     inkscape:groupmode="layer"
     id="layer1"><path
       style="fill:#da873b;fill-opacity:1"
       d="M 63.949213,142.98083 H -0.08466867 V 71.437502 -0.10583237 H 72.232853 144.55038 v 0.1451516 0.14515166 l -1.69698,4.70996701 -1.69698,4.7099674 -0.68095,2.3654577 -0.68095,2.365459 -0.69178,3.312191 -0.69178,3.312191 -0.0202,4.769556 -0.0202,4.769556 0.49252,2.649753 0.49253,2.649753 2.04301,7.286821 2.04301,7.286821 0.55177,2.566696 0.55178,2.566695 0.25904,2.974386 0.25904,2.974386 -0.26686,3.335592 -0.26686,3.335591 -0.5212,2.587056 -0.52121,2.587057 -0.93539,3.109913 -0.9354,3.109913 -1.39917,3.465182 -1.39918,3.465182 -4.21397,8.723683 -4.21397,8.723674 -1.07963,2.7407 -1.07964,2.74069 -0.78545,2.81855 -0.78545,2.81854 -0.39027,2.99979 -0.39026,2.99978 v 3.27055 3.27054 l 0.27221,2.74407 0.2722,2.74408 0.77969,4.69068 0.77968,4.69069 v 0.2776 0.2776 z"
       id="path1" /></g></svg>
